<?xml version="1.0" encoding="iso-8859-1"?>
<!-- Generator: Adobe Illustrator 19.0.0, SVG Export Plug-In . SVG Version: 6.00 Build 0)  -->
<svg version="1.1" id="Capa_1" xmlns="http://www.w3.org/2000/svg" xmlns:xlink="http://www.w3.org/1999/xlink" x="0px" y="0px"
	 viewBox="0 0 511.998 511.998" style="enable-background:new 0 0 511.998 511.998;" xml:space="preserve">
<g>
	<g>
		<path d="M212.356,171.922c-3.899-3.909-10.237-3.909-14.136,0c-3.909,3.899-3.909,10.227,0,14.136
			c3.899,3.899,10.237,3.899,14.136,0C216.265,182.149,216.265,175.82,212.356,171.922z"/>
	</g>
</g>
<g>
	<g>
		<path d="M452.896,299.354L289.144,135.59V90.045c0-49.612-40.362-89.974-89.974-89.974s-89.974,40.362-89.974,89.974v114.724
			l-79.729,79.73c-0.003,0.003-0.006,0.006-0.009,0.009s-0.005,0.006-0.009,0.01l-14.837,14.837
			c-19.483,19.483-19.484,51.194,0,70.691l127.241,127.231c9.44,9.447,21.995,14.65,35.348,14.65
			c13.352,0,25.906-5.203,35.345-14.647l14.835-14.834c0.001-0.001,0.001-0.001,0.002-0.002c0,0,0.001-0.001,0.002-0.002
			l166.03-166.023h52.413c4.044,0,7.689-2.436,9.236-6.171C456.61,306.513,455.754,302.213,452.896,299.354z M272.17,225.587
			c1.947-1.948,4.506-2.922,7.064-2.922c2.561,0,5.122,0.976,7.073,2.926c1.89,1.887,2.931,4.398,2.931,7.068
			c0,2.669-1.041,5.18-2.931,7.066c-0.002,0.002-0.003,0.003-0.005,0.005c-1.888,1.887-4.397,2.927-7.066,2.927
			s-5.178-1.04-7.067-2.928c-1.888-1.888-2.927-4.399-2.927-7.072C269.242,229.987,270.281,227.475,272.17,225.587z M199.17,20.066
			c38.588,0,69.98,31.393,69.98,69.98v25.551l-28.321-28.321c-1.875-1.874-4.418-2.928-7.069-2.928
			c-2.651,0-5.194,1.054-7.069,2.928l-97.5,97.501v-94.73h-0.001C129.191,51.459,160.582,20.066,199.17,20.066z M198.406,483.142
			c-5.664,5.667-13.194,8.789-21.205,8.789c-8.012,0-15.542-3.121-21.209-8.791L28.753,355.909
			c-11.692-11.699-11.693-30.727-0.002-42.418l7.776-7.776l169.65,169.658L198.406,483.142z M389.274,296.425
			c-2.651,0-5.193,1.053-7.068,2.928L220.314,461.235L50.664,291.577l75.595-75.596c0.001-0.001,0.002-0.002,0.004-0.004
			l107.496-107.496l35.39,35.392v60.545c-4.062,1.444-7.873,3.785-11.118,7.03c-5.664,5.664-8.783,13.197-8.783,21.21
			c0,8.014,3.119,15.546,8.783,21.21c5.664,5.664,13.194,8.784,21.205,8.784c8.008,0,15.536-3.118,21.2-8.778
			c5.672-5.665,8.796-13.199,8.796-21.215s-3.124-15.55-8.792-21.211c-3.293-3.293-7.169-5.658-11.298-7.096v-40.483
			l132.549,132.556H389.274z"/>
	</g>
</g>
<g>
	<g>
		<path d="M184.085,200.192c-3.902-3.903-10.233-3.905-14.137,0l-84.835,84.825c-3.905,3.904-3.905,10.233-0.001,14.138
			c1.951,1.952,4.511,2.928,7.069,2.928c2.558,0,5.117-0.976,7.068-2.928l84.835-84.825
			C187.988,210.426,187.988,204.097,184.085,200.192z"/>
	</g>
</g>
<g>
	<g>
		<path d="M470.487,370.659c-1.828-2.92-5.03-4.694-8.475-4.694c-3.445,0-6.646,1.773-8.474,4.694
			c-6.932,11.076-41.511,67.527-41.511,91.278c0,27.562,22.424,49.985,49.985,49.985c27.562,0,49.985-22.423,49.985-49.985
			C511.999,438.186,477.419,381.733,470.487,370.659z M462.014,491.928c-16.537,0-29.991-13.454-29.991-29.991
			c0-11.013,15.563-41.86,29.991-66.616c14.428,24.757,29.991,55.604,29.991,66.616
			C492.005,478.474,478.551,491.928,462.014,491.928z"/>
	</g>
</g>
<g>
</g>
<g>
</g>
<g>
</g>
<g>
</g>
<g>
</g>
<g>
</g>
<g>
</g>
<g>
</g>
<g>
</g>
<g>
</g>
<g>
</g>
<g>
</g>
<g>
</g>
<g>
</g>
<g>
</g>
</svg>
